# xmcd
#
# Track frame offsets: 
#        150
#        26188
#        37555
#        51808
#        67343
#        83110
#        100100
#        117478
#        132915
#        149698
#        159813
#        166240
#        174825
#        179705
#        195232
#        200115
#        210730
#        232165
#        252237
#        264873
#        277088
#        296535
#        314095
#        332055
#
# Disc length: 4681 seconds
#
# Revision: 5
# Processed by: cddbd v1.4b42PL1 Copyright (c) Steve Scherf et al.
# Submitted via: ExactAudioCopy v0.90a11
#
DISCID=6c124718
DTITLE=Bee Gees - ONE NIGHT ONLY
DYEAR=1900
DGENRE=
TTITLE0=Intro - You Should Be Dancing - Alone
TTITLE1=Massachusetts
TTITLE2=To Love Somebody
TTITLE3=Words
TTITLE4=Closer Than Close
TTITLE5=Islands In The Stream
TTITLE6=Our Love (Don't Throw It All Away)
TTITLE7=Night Fever - More Than A Women
TTITLE8=Lonely Days
TTITLE9=New York Mining Disaster 1941
TTITLE10=I Can't See Nobody
TTITLE11=And The Sun Will Shine
TTITLE12=Nights On Broadway
TTITLE13=How Can You Mend A Broken Heart
TTITLE14=Heartbreaker
TTITLE15=Guilty
TTITLE16=Immortality Featuring Celine Dion
TTITLE17=tragedy
TTITLE18=I Started A Joke
TTITLE19=Grease
TTITLE20=Jive Talkin'
TTITLE21=How Deep Is Your Love
TTITLE22=Stayin' Alive
TTITLE23=You Should Be Dancing
EXTD=Heinz
EXTT0=
EXTT1=
EXTT2=
EXTT3=
EXTT4=
EXTT5=
EXTT6=
EXTT7=
EXTT8=
EXTT9=
EXTT10=
EXTT11=
EXTT12=
EXTT13=
EXTT14=
EXTT15=
EXTT16=
EXTT17=
EXTT18=
EXTT19=
EXTT20=
EXTT21=
EXTT22=
EXTT23=
PLAYORDER=
